<?xml version="1.0" standalone="no"?>
<!DOCTYPE svg PUBLIC "-//W3C//DTD SVG 20010904//EN"
 "http://www.w3.org/TR/2001/REC-SVG-20010904/DTD/svg10.dtd">
<svg version="1.0" xmlns="http://www.w3.org/2000/svg"
 width="500.000000pt" height="500.000000pt" viewBox="0 0 500.000000 500.000000"
 preserveAspectRatio="xMidYMid meet">

<g transform="translate(0.000000,500.000000) scale(0.100000,-0.100000)"
fill="#000000" stroke="none">
<path d="M3940 4893 c-173 -58 -376 -125 -450 -150 -74 -25 -344 -117 -599
-204 -255 -87 -470 -159 -479 -159 -8 0 -292 -94 -630 -210 -338 -115 -621
-210 -629 -210 -19 0 -810 -270 -881 -300 -53 -23 -82 -57 -96 -115 -8 -31 17
-147 61 -287 l24 -77 -39 -53 c-51 -68 -67 -100 -86 -175 -20 -78 -20 -175 0
-244 36 -122 122 -246 197 -285 l27 -15 0 -1133 c0 -821 3 -1142 11 -1167 7
-19 21 -45 33 -57 49 -55 -98 -52 2223 -52 l2148 0 39 32 c21 17 45 46 52 64
12 28 14 265 14 1414 l0 1380 -1903 0 -1903 0 -19 78 c-10 42 -24 88 -32 100
-8 13 -13 25 -11 26 12 10 92 36 108 36 10 0 182 56 382 126 356 123 649 221
1018 342 102 33 372 124 600 202 228 79 433 147 455 152 39 10 1076 358 1084
364 2 2 -13 47 -32 101 -20 54 -63 181 -97 282 -72 218 -78 230 -127 270 -63
52 -98 46 -463 -76z m-62 -240 c-2 -10 -28 -113 -58 -228 l-54 -211 -236 -81
-237 -81 14 58 c29 127 102 393 110 400 8 8 440 158 457 159 4 1 6 -7 4 -16z
m-1206 -445 c-26 -109 -101 -391 -104 -393 -12 -8 -460 -156 -463 -153 -2 2
22 105 53 229 l58 224 225 77 c123 42 229 77 235 77 8 1 7 -17 -4 -61z m-1196
-360 c-3 -13 -11 -52 -16 -88 -5 -36 -27 -127 -47 -204 l-38 -138 -230 -79
c-126 -43 -231 -76 -233 -74 -5 4 99 431 109 446 5 8 429 156 453 158 4 1 6
-9 2 -21z m-817 -788 c118 -34 195 -163 169 -285 -21 -102 -153 -194 -255
-178 -86 13 -182 91 -204 166 -22 77 2 169 59 231 35 37 117 76 162 76 19 0
50 -4 69 -10z m1070 -327 c-8 -10 -17 -20 -20 -23 -3 -3 -57 -85 -118 -182
l-113 -178 -244 0 -244 0 25 40 c14 22 25 43 25 46 0 9 125 209 167 267 l35
47 250 0 c237 0 250 -1 237 -17z m1188 -107 c-45 -69 -103 -159 -129 -200
l-47 -76 -241 0 c-132 0 -240 2 -240 5 0 18 162 287 218 363 l24 32 248 0 248
0 -81 -124z m1329 102 c-33 -46 -104 -156 -171 -265 l-70 -112 -242 -1 c-134
0 -243 2 -243 3 0 17 129 233 212 355 l29 42 251 0 250 0 -16 -22z m-1697
-986 c75 -47 145 -93 156 -102 26 -22 275 -175 297 -183 10 -3 48 -26 85 -50
37 -24 80 -51 96 -60 15 -10 27 -21 27 -26 0 -11 -117 -89 -305 -204 -138 -84
-176 -108 -404 -254 -62 -40 -118 -73 -122 -73 -5 0 -9 237 -9 530 l0 531 22
-12 c12 -6 83 -50 157 -97z"/>
</g>
</svg>
